{
  "source": "C:\\Users\\Peter\\Desktop\\stuff\\MIUN\\quantitative_research\\video_compression\\videos\\BVI-HD\\BVI-HD_CDVL_videos\\ORIG\\PlasmaSlowRandom_1920x1080_60fps.mp4",
  "output": "C:\\Users\\Peter\\Desktop\\stuff\\MIUN\\quantitative_research\\video_compression\\compressed_videos\\BVI-HD\\vp9\\2.5\\PlasmaSlowRandom_1920x1080_60fps_vp9.webm",
  "codec": "vp9",
  "ok": "Input #0, mov,mp4,m4a,3gp,3g2,mj2, from 'C:\\Users\\Peter\\Desktop\\stuff\\MIUN\\quantitative_research\\video_compression\\videos\\BVI-HD\\BVI-HD_CDVL_videos\\ORIG\\PlasmaSlowRandom_1920x1080_60fps.mp4':\n  Metadata:\n    major_brand     : isom\n    minor_version   : 512\n    compatible_brands: isomiso2avc1mp41\n    encoder         : Lavf54.28.101\n  Duration: 00:00:05.00, start: 0.000000, bitrate: 23030 kb/s\n  Stream #0:0[0x1](und): Video: h264 (High 4:4:4 Predictive) (avc1 / 0x31637661), yuv420p(progressive), 1920x1080, 23026 kb/s, 60 fps, 60 tbr, 60 tbn (default)\n    Metadata:\n      handler_name    : VideoHandler\n      vendor_id       : [0][0][0][0]\n[out#0/webm @ 000001ca8bf24e00] Codec AVOption b:a (set bitrate (in bits/s)) has not been used for any stream. The most likely reason is either wrong type (e.g. a video option with no video streams) or that it is a private option of some decoder which was not actually used for any stream.\nStream mapping:\n  Stream #0:0 -> #0:0 (h264 (native) -> vp9 (libvpx-vp9))\nPress [q] to stop, [?] for help\n[libvpx-vp9 @ 000001ca8c02d680] v1.15.2-100-g40561f514\nOutput #0, webm, to 'C:\\Users\\Peter\\Desktop\\stuff\\MIUN\\quantitative_research\\video_compression\\compressed_videos\\BVI-HD\\vp9\\2.5\\PlasmaSlowRandom_1920x1080_60fps_vp9.webm':\n  Metadata:\n    major_brand     : isom\n    minor_version   : 512\n    compatible_brands: isomiso2avc1mp41\n    encoder         : Lavf62.3.100\n  Stream #0:0(und): Video: vp9, yuv420p(tv, progressive), 1920x1080, q=2-31, 2500 kb/s, 60 fps, 1k tbn (default)\n    Metadata:\n      encoder         : Lavc62.11.100 libvpx-vp9\n      handler_name    : VideoHandler\n      vendor_id       : [0][0][0][0]\n    Side data:\n      cpb: bitrate max/min/avg: 0/0/0 buffer size: 2500000 vbv_delay: N/A\nframe=    5 fps=0.0 q=41.0 size=       1KiB time=00:00:00.08 bitrate=  60.8kbits/s speed=0.16x elapsed=0:00:00.52    \nframe=   15 fps= 14 q=31.0 size=       1KiB time=00:00:00.25 bitrate=  20.3kbits/s speed=0.24x elapsed=0:00:01.04    \nframe=   24 fps= 15 q=31.0 size=       1KiB time=00:00:00.40 bitrate=  12.7kbits/s speed=0.253x elapsed=0:00:01.58    \nframe=   34 fps= 16 q=31.0 size=       1KiB time=00:00:00.56 bitrate=   8.9kbits/s speed=0.271x elapsed=0:00:02.09    \nframe=   43 fps= 16 q=35.0 size=       1KiB time=00:00:00.71 bitrate=   7.1kbits/s speed=0.273x elapsed=0:00:02.62    \nframe=   53 fps= 17 q=35.0 size=       1KiB time=00:00:00.88 bitrate=   5.7kbits/s speed=0.282x elapsed=0:00:03.13    \nframe=   63 fps= 17 q=35.0 size=       1KiB time=00:00:01.05 bitrate=   4.8kbits/s speed=0.287x elapsed=0:00:03.65    \nframe=   72 fps= 17 q=35.0 size=       1KiB time=00:00:01.20 bitrate=   4.2kbits/s speed=0.288x elapsed=0:00:04.17    \nframe=   83 fps= 18 q=35.0 size=       1KiB time=00:00:01.38 bitrate=   3.7kbits/s speed=0.296x elapsed=0:00:04.67    \nframe=   92 fps= 18 q=34.0 size=       1KiB time=00:00:01.53 bitrate=   3.3kbits/s speed=0.295x elapsed=0:00:05.20    \nframe=  102 fps= 18 q=35.0 size=       1KiB time=00:00:01.70 bitrate=   3.0kbits/s speed=0.297x elapsed=0:00:05.72    \nframe=  112 fps= 18 q=38.0 size=       1KiB time=00:00:01.85 bitrate=   2.7kbits/s speed=0.296x elapsed=0:00:06.25    \nframe=  122 fps= 18 q=38.0 size=       1KiB time=00:00:02.03 bitrate=   2.5kbits/s speed=0.299x elapsed=0:00:06.80    \nframe=  132 fps= 18 q=39.0 size=     256KiB time=00:00:02.20 bitrate= 953.3kbits/s speed= 0.3x elapsed=0:00:07.33    \nframe=  142 fps= 18 q=36.0 size=     256KiB time=00:00:02.36 bitrate= 886.1kbits/s speed=0.301x elapsed=0:00:07.85    \nframe=  152 fps= 18 q=13.0 size=     256KiB time=00:00:02.53 bitrate= 827.8kbits/s speed=0.301x elapsed=0:00:08.40    \nframe=  161 fps= 18 q=35.0 size=     256KiB time=00:00:02.68 bitrate= 781.5kbits/s speed=0.301x elapsed=0:00:08.92    \nframe=  169 fps= 18 q=35.0 size=     256KiB time=00:00:02.81 bitrate= 744.6kbits/s speed=0.299x elapsed=0:00:09.43    \nframe=  176 fps= 18 q=14.0 size=     256KiB time=00:00:02.93 bitrate= 714.9kbits/s speed=0.295x elapsed=0:00:09.95    \nframe=  186 fps= 18 q=35.0 size=     256KiB time=00:00:03.10 bitrate= 676.5kbits/s speed=0.296x elapsed=0:00:10.47    \nframe=  196 fps= 18 q=35.0 size=     256KiB time=00:00:03.26 bitrate= 642.0kbits/s speed=0.298x elapsed=0:00:10.98    \nframe=  206 fps= 18 q=35.0 size=     256KiB time=00:00:03.41 bitrate= 613.8kbits/s speed=0.297x elapsed=0:00:11.51    \nframe=  214 fps= 18 q=36.0 size=     256KiB time=00:00:03.56 bitrate= 588.0kbits/s speed=0.296x elapsed=0:00:12.05    \nframe=  224 fps= 18 q=13.0 size=     256KiB time=00:00:03.73 bitrate= 561.7kbits/s speed=0.297x elapsed=0:00:12.58    \nframe=  232 fps= 18 q=38.0 size=     256KiB time=00:00:03.86 bitrate= 542.4kbits/s speed=0.295x elapsed=0:00:13.11    \nframe=  242 fps= 18 q=36.0 size=     256KiB time=00:00:04.03 bitrate= 520.0kbits/s speed=0.296x elapsed=0:00:13.61    \nframe=  253 fps= 18 q=34.0 size=     256KiB time=00:00:04.21 bitrate= 497.3kbits/s speed=0.297x elapsed=0:00:14.18    \nframe=  262 fps= 18 q=33.0 size=     512KiB time=00:00:04.36 bitrate= 960.5kbits/s speed=0.297x elapsed=0:00:14.70    \nframe=  270 fps= 18 q=36.0 size=     512KiB time=00:00:04.50 bitrate= 932.1kbits/s speed=0.296x elapsed=0:00:15.20    \nframe=  276 fps= 18 q=35.0 size=     512KiB time=00:00:04.60 bitrate= 911.8kbits/s speed=0.292x elapsed=0:00:15.73    \nframe=  276 fps= 17 q=35.0 size=     512KiB time=00:00:04.60 bitrate= 911.8kbits/s speed=0.283x elapsed=0:00:16.26    \nframe=  276 fps= 16 q=35.0 size=     512KiB time=00:00:04.60 bitrate= 911.8kbits/s speed=0.274x elapsed=0:00:16.79    \n[out#0/webm @ 000001ca8bf24e00] video:900KiB audio:0KiB subtitle:0KiB other streams:0KiB global headers:0KiB muxing overhead: 0.306683%\nframe=  300 fps= 18 q=36.0 Lsize=     902KiB time=00:00:05.00 bitrate=1478.4kbits/s speed=0.297x elapsed=0:00:16.83    \n",
  "seconds": 17.053046226501465,
  "probe_out": {}
}